<svg width="60" height="60" viewBox="0 0 60 60" fill="none" xmlns="http://www.w3.org/2000/svg">
<path d="M35 7.5V17.5C35 18.163 35.2634 18.7989 35.7322 19.2678C36.2011 19.7366 36.837 20 37.5 20H47.5M35 7.5H17.5C16.1739 7.5 14.9021 8.02678 13.9645 8.96447C13.0268 9.90215 12.5 11.1739 12.5 12.5V47.5C12.5 48.8261 13.0268 50.0979 13.9645 51.0355C14.9021 51.9732 16.1739 52.5 17.5 52.5H42.5C43.8261 52.5 45.0979 51.9732 46.0355 51.0355C46.9732 50.0979 47.5 48.8261 47.5 47.5V20M35 7.5L47.5 20M22.5 17.5H25M22.5 32.5H37.5M32.5 42.5H37.5" stroke="#1E3F76" stroke-width="3" stroke-linecap="round" stroke-linejoin="round"/>
</svg>
