<svg width="30" height="30" viewBox="0 0 30 30" fill="none" xmlns="http://www.w3.org/2000/svg">
<path d="M15 21.25V21.2625M15 16.875C14.977 16.4692 15.0864 16.067 15.3119 15.7288C15.5373 15.3906 15.8666 15.1348 16.25 15C16.7198 14.8203 17.1416 14.5341 17.482 14.1637C17.8224 13.7934 18.0721 13.349 18.2117 12.8658C18.3512 12.3825 18.3766 11.8734 18.2859 11.3786C18.1952 10.8838 17.991 10.4168 17.6891 10.0144C17.3873 9.61199 16.9962 9.28512 16.5466 9.05954C16.097 8.83396 15.6012 8.71582 15.0982 8.71442C14.5951 8.71303 14.0987 8.82841 13.6478 9.0515C13.197 9.27458 12.804 9.59928 12.5 10M3.75 15C3.75 16.4774 4.04099 17.9403 4.60636 19.3052C5.17172 20.6701 6.00039 21.9103 7.04505 22.955C8.08971 23.9996 9.3299 24.8283 10.6948 25.3936C12.0597 25.959 13.5226 26.25 15 26.25C16.4774 26.25 17.9403 25.959 19.3052 25.3936C20.6701 24.8283 21.9103 23.9996 22.955 22.955C23.9996 21.9103 24.8283 20.6701 25.3936 19.3052C25.959 17.9403 26.25 16.4774 26.25 15C26.25 13.5226 25.959 12.0597 25.3936 10.6948C24.8283 9.3299 23.9996 8.08971 22.955 7.04505C21.9103 6.00039 20.6701 5.17172 19.3052 4.60636C17.9403 4.04099 16.4774 3.75 15 3.75C13.5226 3.75 12.0597 4.04099 10.6948 4.60636C9.3299 5.17172 8.08971 6.00039 7.04505 7.04505C6.00039 8.08971 5.17172 9.3299 4.60636 10.6948C4.04099 12.0597 3.75 13.5226 3.75 15Z" stroke="#3C3C3C" stroke-width="2" stroke-linecap="round" stroke-linejoin="round"/>
</svg>
