<svg width="75" height="75" viewBox="0 0 75 75" fill="none" xmlns="http://www.w3.org/2000/svg">
<path d="M46.0813 19.6406C46.6735 19.061 47.4717 18.7402 48.3003 18.749C49.129 18.7578 49.9202 19.0954 50.5 19.6875L56.25 25.5656V3.125C56.25 2.2962 56.5792 1.50134 57.1653 0.915291C57.7513 0.32924 58.5462 0 59.375 0C60.2038 0 60.9987 0.32924 61.5847 0.915291C62.1708 1.50134 62.5 2.2962 62.5 3.125V25.5656L68.25 19.6875C68.8302 19.0949 69.622 18.7571 70.4512 18.7483C71.2805 18.7395 72.0793 19.0605 72.6719 19.6406C73.2645 20.2208 73.6023 21.0126 73.6111 21.8419C73.6199 22.6711 73.2989 23.4699 72.7188 24.0625L64.8594 32.0938C63.4163 33.5438 61.4582 34.3639 59.4125 34.375C59.393 34.3798 59.3726 34.3798 59.3531 34.375C58.3429 34.3753 57.3425 34.1761 56.4094 33.7889C55.4764 33.4018 54.6289 32.8342 53.9156 32.1187L46.0312 24.0625C45.744 23.769 45.5173 23.4217 45.3643 23.0406C45.2114 22.6594 45.135 22.2519 45.1396 21.8412C45.1443 21.4305 45.2298 21.0248 45.3914 20.6472C45.553 20.2696 45.7874 19.9276 46.0813 19.6406V19.6406ZM37.5 48.1937C39.9859 48.1965 42.3712 47.2119 44.1312 45.4562L51.4469 38.1406C50.7488 37.665 50.0952 37.1274 49.4938 36.5344L41.5625 28.4375C39.8239 26.6604 38.8623 24.2656 38.8893 21.7796C38.9162 19.2936 39.9295 16.9202 41.7062 15.1812C43.1875 13.7312 46.225 11.0719 48.1875 9.375H15.625C12.9476 9.38231 10.3172 10.0794 7.98758 11.3992C5.65797 12.7189 3.70775 14.6166 2.325 16.9094L30.8688 45.4562C32.6288 47.2119 35.0141 48.1965 37.5 48.1937ZM69.3281 36.4625C67.8685 37.9654 66.0812 39.1105 64.1058 39.8081C62.1303 40.5058 60.0203 40.7373 57.9406 40.4844L48.55 49.875C45.6164 52.8 41.6427 54.4426 37.5 54.4426C33.3573 54.4426 29.3836 52.8 26.45 49.875L0.14375 23.5687C0.1 24.0625 0 24.5094 0 25V59.375C0.00496206 63.5175 1.65276 67.4889 4.58194 70.4181C7.51112 73.3472 11.4825 74.995 15.625 75H59.375C63.5175 74.995 67.4889 73.3472 70.4181 70.4181C73.3472 67.4889 74.995 63.5175 75 59.375V30.6625L69.3281 36.4625Z" fill="#1E3F76"/>
</svg>
