<svg width="226" height="64" viewBox="0 0 226 64" fill="none" xmlns="http://www.w3.org/2000/svg">
<path d="M0.98 15V4.92H5.054C5.152 4.92 5.27333 4.92467 5.418 4.934C5.56267 4.93867 5.70033 4.95267 5.831 4.976C6.391 5.06467 6.85767 5.256 7.231 5.55C7.609 5.844 7.89133 6.215 8.078 6.663C8.26467 7.111 8.358 7.60567 8.358 8.147C8.358 8.693 8.26467 9.19 8.078 9.638C7.89133 10.086 7.609 10.457 7.231 10.751C6.85767 11.045 6.391 11.2363 5.831 11.325C5.70033 11.3437 5.56033 11.3577 5.411 11.367C5.26633 11.3763 5.14733 11.381 5.054 11.381H2.443V15H0.98ZM2.443 9.995H4.998C5.09133 9.995 5.194 9.99033 5.306 9.981C5.42267 9.97167 5.53233 9.95533 5.635 9.932C5.93367 9.862 6.174 9.73367 6.356 9.547C6.538 9.35567 6.66867 9.13633 6.748 8.889C6.82733 8.64167 6.867 8.39433 6.867 8.147C6.867 7.89967 6.82733 7.65467 6.748 7.412C6.66867 7.16467 6.538 6.94767 6.356 6.761C6.174 6.56967 5.93367 6.439 5.635 6.369C5.53233 6.341 5.42267 6.32233 5.306 6.313C5.194 6.30367 5.09133 6.299 4.998 6.299H2.443V9.995ZM11.2399 15.21C10.6799 15.21 10.2109 15.1073 9.83292 14.902C9.45492 14.692 9.16792 14.4167 8.97192 14.076C8.78059 13.7307 8.68492 13.3527 8.68492 12.942C8.68492 12.5593 8.75259 12.2233 8.88792 11.934C9.02326 11.6447 9.22392 11.3997 9.48992 11.199C9.75592 10.9937 10.0826 10.828 10.4699 10.702C10.8059 10.604 11.1863 10.5177 11.6109 10.443C12.0356 10.3683 12.4813 10.2983 12.9479 10.233C13.4193 10.1677 13.8859 10.1023 14.3479 10.037L13.8159 10.331C13.8253 9.73833 13.6993 9.29967 13.4379 9.015C13.1813 8.72567 12.7379 8.581 12.1079 8.581C11.7113 8.581 11.3473 8.67433 11.0159 8.861C10.6846 9.043 10.4536 9.34633 10.3229 9.771L8.95792 9.351C9.14459 8.70233 9.49926 8.18667 10.0219 7.804C10.5493 7.42133 11.2493 7.23 12.1219 7.23C12.7986 7.23 13.3866 7.34667 13.8859 7.58C14.3899 7.80867 14.7586 8.17267 14.9919 8.672C15.1133 8.91933 15.1879 9.18067 15.2159 9.456C15.2439 9.73133 15.2579 10.0277 15.2579 10.345V15H13.9629V13.271L14.2149 13.495C13.9023 14.0737 13.5033 14.5053 13.0179 14.79C12.5373 15.07 11.9446 15.21 11.2399 15.21ZM11.4989 14.013C11.9143 14.013 12.2713 13.9407 12.5699 13.796C12.8686 13.6467 13.1089 13.4577 13.2909 13.229C13.4729 13.0003 13.5919 12.7623 13.6479 12.515C13.7273 12.291 13.7716 12.039 13.7809 11.759C13.7949 11.479 13.8019 11.255 13.8019 11.087L14.2779 11.262C13.8159 11.332 13.3959 11.395 13.0179 11.451C12.6399 11.507 12.2969 11.563 11.9889 11.619C11.6856 11.6703 11.4149 11.7333 11.1769 11.808C10.9763 11.878 10.7966 11.962 10.6379 12.06C10.4839 12.158 10.3603 12.277 10.2669 12.417C10.1783 12.557 10.1339 12.7273 10.1339 12.928C10.1339 13.124 10.1829 13.306 10.2809 13.474C10.3789 13.6373 10.5283 13.768 10.7289 13.866C10.9296 13.964 11.1863 14.013 11.4989 14.013ZM17.2538 18.36L18.7168 14.377L18.7378 15.553L15.4408 7.44H16.9668L19.4308 13.705H18.9828L21.3348 7.44H22.8188L18.6468 18.36H17.2538ZM32.5534 15L32.5604 10.289C32.5604 9.743 32.4204 9.31833 32.1404 9.015C31.8604 8.707 31.4917 8.553 31.0344 8.553C30.7544 8.553 30.4977 8.61833 30.2644 8.749C30.0357 8.875 29.8491 9.06633 29.7044 9.323C29.5644 9.575 29.4944 9.89233 29.4944 10.275L28.7874 9.918C28.7781 9.386 28.8901 8.91933 29.1234 8.518C29.3614 8.11667 29.6834 7.80633 30.0894 7.587C30.4954 7.363 30.9504 7.251 31.4544 7.251C32.2711 7.251 32.9034 7.496 33.3514 7.986C33.7994 8.476 34.0234 9.127 34.0234 9.939L34.0164 15H32.5534ZM23.4884 15V7.44H24.7904V9.624H24.9584V15H23.4884ZM28.0244 15L28.0314 10.317C28.0314 9.76633 27.8914 9.33467 27.6114 9.022C27.3361 8.70933 26.9651 8.553 26.4984 8.553C26.0364 8.553 25.6631 8.71167 25.3784 9.029C25.0984 9.34633 24.9584 9.76167 24.9584 10.275L24.2584 9.827C24.2584 9.33233 24.3774 8.89133 24.6154 8.504C24.8534 8.11667 25.1754 7.811 25.5814 7.587C25.9874 7.363 26.4471 7.251 26.9604 7.251C27.4971 7.251 27.9544 7.36533 28.3324 7.594C28.7104 7.818 28.9974 8.133 29.1934 8.539C29.3941 8.945 29.4944 9.41633 29.4944 9.953L29.4874 15H28.0244ZM38.6784 15.21C37.9271 15.21 37.2667 15.0467 36.6974 14.72C36.1327 14.3887 35.6917 13.929 35.3744 13.341C35.0617 12.7483 34.9054 12.0623 34.9054 11.283C34.9054 10.457 35.0594 9.74067 35.3674 9.134C35.6801 8.52733 36.1141 8.05833 36.6694 7.727C37.2247 7.39567 37.8711 7.23 38.6084 7.23C39.3784 7.23 40.0341 7.40967 40.5754 7.769C41.1167 8.12367 41.5204 8.63 41.7864 9.288C42.0571 9.946 42.1644 10.7277 42.1084 11.633H40.6454V11.101C40.6361 10.2237 40.4681 9.575 40.1414 9.155C39.8194 8.735 39.3271 8.525 38.6644 8.525C37.9317 8.525 37.3811 8.756 37.0124 9.218C36.6437 9.68 36.4594 10.3473 36.4594 11.22C36.4594 12.0507 36.6437 12.6947 37.0124 13.152C37.3811 13.6047 37.9131 13.831 38.6084 13.831C39.0657 13.831 39.4601 13.7283 39.7914 13.523C40.1274 13.313 40.3887 13.0143 40.5754 12.627L42.0104 13.082C41.7164 13.7587 41.2707 14.2837 40.6734 14.657C40.0761 15.0257 39.4111 15.21 38.6784 15.21ZM35.9834 11.633V10.492H41.3804V11.633H35.9834ZM48.3598 15V11.283C48.3598 10.989 48.3342 10.688 48.2828 10.38C48.2362 10.0673 48.1428 9.778 48.0028 9.512C47.8675 9.246 47.6738 9.03133 47.4218 8.868C47.1745 8.70467 46.8502 8.623 46.4488 8.623C46.1875 8.623 45.9402 8.66733 45.7068 8.756C45.4735 8.84 45.2682 8.97767 45.0908 9.169C44.9182 9.36033 44.7805 9.61233 44.6778 9.925C44.5798 10.2377 44.5308 10.618 44.5308 11.066L43.6208 10.723C43.6208 10.037 43.7492 9.43267 44.0058 8.91C44.2625 8.38267 44.6312 7.972 45.1118 7.678C45.5925 7.384 46.1735 7.237 46.8548 7.237C47.3775 7.237 47.8162 7.321 48.1708 7.489C48.5255 7.657 48.8125 7.87867 49.0318 8.154C49.2558 8.42467 49.4262 8.721 49.5428 9.043C49.6595 9.365 49.7388 9.68 49.7808 9.988C49.8228 10.296 49.8438 10.5667 49.8438 10.8V15H48.3598ZM43.0468 15V7.44H44.3558V9.624H44.5308V15H43.0468ZM55.5731 15C55.0971 15.0933 54.6304 15.133 54.1731 15.119C53.7158 15.105 53.3074 15.0163 52.9481 14.853C52.5888 14.6897 52.3181 14.433 52.1361 14.083C51.9728 13.7703 51.8841 13.453 51.8701 13.131C51.8608 12.8043 51.8561 12.4357 51.8561 12.025V5.34H53.3261V11.955C53.3261 12.2583 53.3284 12.522 53.3331 12.746C53.3424 12.97 53.3914 13.159 53.4801 13.313C53.6481 13.6023 53.9141 13.768 54.2781 13.81C54.6468 13.8473 55.0784 13.831 55.5731 13.761V15ZM50.4071 8.616V7.44H55.5731V8.616H50.4071ZM59.638 15.203C58.7187 15.203 57.9697 15 57.391 14.594C56.8124 14.188 56.4577 13.6163 56.327 12.879L57.825 12.648C57.9184 13.04 58.133 13.3503 58.469 13.579C58.8097 13.803 59.232 13.915 59.736 13.915C60.1934 13.915 60.5504 13.8217 60.807 13.635C61.0684 13.4483 61.199 13.1917 61.199 12.865C61.199 12.6737 61.1524 12.5197 61.059 12.403C60.9704 12.2817 60.7814 12.1673 60.492 12.06C60.2027 11.9527 59.7617 11.8197 59.169 11.661C58.5204 11.493 58.0047 11.3133 57.622 11.122C57.244 10.926 56.9734 10.6997 56.81 10.443C56.6514 10.1817 56.572 9.86667 56.572 9.498C56.572 9.04067 56.6934 8.64167 56.936 8.301C57.1787 7.96033 57.5194 7.69667 57.958 7.51C58.4014 7.32333 58.9194 7.23 59.512 7.23C60.0907 7.23 60.6064 7.321 61.059 7.503C61.5117 7.685 61.878 7.944 62.158 8.28C62.438 8.61133 62.606 9.001 62.662 9.449L61.164 9.722C61.1127 9.358 60.9424 9.071 60.653 8.861C60.3637 8.651 59.988 8.53667 59.526 8.518C59.0827 8.49933 58.7234 8.574 58.448 8.742C58.1727 8.90533 58.035 9.13167 58.035 9.421C58.035 9.589 58.0864 9.73133 58.189 9.848C58.2964 9.96467 58.5017 10.0767 58.805 10.184C59.1084 10.2913 59.5564 10.4197 60.149 10.569C60.7837 10.7323 61.2877 10.9143 61.661 11.115C62.0344 11.311 62.3004 11.5467 62.459 11.822C62.6224 12.0927 62.704 12.4217 62.704 12.809C62.704 13.5557 62.431 14.1413 61.885 14.566C61.3437 14.9907 60.5947 15.203 59.638 15.203ZM69.1066 15.203C68.1873 15.203 67.4383 15 66.8596 14.594C66.281 14.188 65.9263 13.6163 65.7956 12.879L67.2936 12.648C67.387 13.04 67.6016 13.3503 67.9376 13.579C68.2783 13.803 68.7006 13.915 69.2046 13.915C69.662 13.915 70.019 13.8217 70.2756 13.635C70.537 13.4483 70.6676 13.1917 70.6676 12.865C70.6676 12.6737 70.621 12.5197 70.5276 12.403C70.439 12.2817 70.25 12.1673 69.9606 12.06C69.6713 11.9527 69.2303 11.8197 68.6376 11.661C67.989 11.493 67.4733 11.3133 67.0906 11.122C66.7126 10.926 66.442 10.6997 66.2786 10.443C66.12 10.1817 66.0406 9.86667 66.0406 9.498C66.0406 9.04067 66.162 8.64167 66.4046 8.301C66.6473 7.96033 66.988 7.69667 67.4266 7.51C67.87 7.32333 68.388 7.23 68.9806 7.23C69.5593 7.23 70.075 7.321 70.5276 7.503C70.9803 7.685 71.3466 7.944 71.6266 8.28C71.9066 8.61133 72.0746 9.001 72.1306 9.449L70.6326 9.722C70.5813 9.358 70.411 9.071 70.1216 8.861C69.8323 8.651 69.4566 8.53667 68.9946 8.518C68.5513 8.49933 68.192 8.574 67.9166 8.742C67.6413 8.90533 67.5036 9.13167 67.5036 9.421C67.5036 9.589 67.555 9.73133 67.6576 9.848C67.765 9.96467 67.9703 10.0767 68.2736 10.184C68.577 10.2913 69.025 10.4197 69.6176 10.569C70.2523 10.7323 70.7563 10.9143 71.1296 11.115C71.503 11.311 71.769 11.5467 71.9276 11.822C72.091 12.0927 72.1726 12.4217 72.1726 12.809C72.1726 13.5557 71.8996 14.1413 71.3536 14.566C70.8123 14.9907 70.0633 15.203 69.1066 15.203ZM76.6545 15.21C75.9032 15.21 75.2428 15.0467 74.6735 14.72C74.1088 14.3887 73.6678 13.929 73.3505 13.341C73.0378 12.7483 72.8815 12.0623 72.8815 11.283C72.8815 10.457 73.0355 9.74067 73.3435 9.134C73.6562 8.52733 74.0902 8.05833 74.6455 7.727C75.2008 7.39567 75.8472 7.23 76.5845 7.23C77.3545 7.23 78.0102 7.40967 78.5515 7.769C79.0928 8.12367 79.4965 8.63 79.7625 9.288C80.0332 9.946 80.1405 10.7277 80.0845 11.633H78.6215V11.101C78.6122 10.2237 78.4442 9.575 78.1175 9.155C77.7955 8.735 77.3032 8.525 76.6405 8.525C75.9078 8.525 75.3572 8.756 74.9885 9.218C74.6198 9.68 74.4355 10.3473 74.4355 11.22C74.4355 12.0507 74.6198 12.6947 74.9885 13.152C75.3572 13.6047 75.8892 13.831 76.5845 13.831C77.0418 13.831 77.4362 13.7283 77.7675 13.523C78.1035 13.313 78.3648 13.0143 78.5515 12.627L79.9865 13.082C79.6925 13.7587 79.2468 14.2837 78.6495 14.657C78.0522 15.0257 77.3872 15.21 76.6545 15.21ZM73.9595 11.633V10.492H79.3565V11.633H73.9595ZM84.469 15.21C83.6943 15.21 83.0363 15.0373 82.495 14.692C81.9537 14.3467 81.5383 13.873 81.249 13.271C80.9643 12.669 80.8197 11.9853 80.815 11.22C80.8197 10.4407 80.969 9.75233 81.263 9.155C81.557 8.553 81.977 8.08167 82.523 7.741C83.069 7.40033 83.7247 7.23 84.49 7.23C85.316 7.23 86.0207 7.43533 86.604 7.846C87.192 8.25667 87.5793 8.819 87.766 9.533L86.31 9.953C86.1653 9.52833 85.9273 9.19933 85.596 8.966C85.2693 8.728 84.8937 8.609 84.469 8.609C83.9883 8.609 83.594 8.72333 83.286 8.952C82.978 9.176 82.7493 9.484 82.6 9.876C82.4507 10.268 82.3737 10.716 82.369 11.22C82.3737 11.9993 82.551 12.6293 82.901 13.11C83.2557 13.5907 83.7783 13.831 84.469 13.831C84.9403 13.831 85.3207 13.7237 85.61 13.509C85.904 13.2897 86.128 12.977 86.282 12.571L87.766 12.921C87.5187 13.6583 87.1103 14.2253 86.541 14.622C85.9717 15.014 85.281 15.21 84.469 15.21ZM91.621 15.203C91.0984 15.203 90.6597 15.119 90.305 14.951C89.9504 14.783 89.661 14.5637 89.437 14.293C89.2177 14.0177 89.0497 13.719 88.933 13.397C88.8164 13.075 88.737 12.76 88.695 12.452C88.653 12.144 88.632 11.8733 88.632 11.64V7.44H90.116V11.157C90.116 11.451 90.1394 11.7543 90.186 12.067C90.2374 12.375 90.3307 12.662 90.466 12.928C90.606 13.194 90.7997 13.4087 91.047 13.572C91.299 13.7353 91.6257 13.817 92.027 13.817C92.2884 13.817 92.5357 13.775 92.769 13.691C93.0024 13.6023 93.2054 13.4623 93.378 13.271C93.5554 13.0797 93.693 12.8277 93.791 12.515C93.8937 12.2023 93.945 11.822 93.945 11.374L94.855 11.717C94.855 12.403 94.7267 13.0097 94.47 13.537C94.2134 14.0597 93.8447 14.468 93.364 14.762C92.8834 15.056 92.3024 15.203 91.621 15.203ZM94.12 15V12.816H93.945V7.44H95.422V15H94.12ZM96.9653 15V7.44H98.2673V9.274L98.0853 9.036C98.1786 8.79333 98.3 8.57167 98.4493 8.371C98.5986 8.16567 98.7713 7.99767 98.9673 7.867C99.1586 7.727 99.371 7.61967 99.6043 7.545C99.8423 7.46567 100.085 7.419 100.332 7.405C100.58 7.38633 100.818 7.398 101.046 7.44V8.812C100.799 8.74667 100.524 8.728 100.22 8.756C99.9216 8.784 99.6463 8.87967 99.3943 9.043C99.1563 9.197 98.9673 9.38367 98.8273 9.603C98.692 9.82233 98.594 10.0673 98.5333 10.338C98.4726 10.604 98.4423 10.8863 98.4423 11.185V15H96.9653ZM105.176 15.21C104.424 15.21 103.764 15.0467 103.195 14.72C102.63 14.3887 102.189 13.929 101.872 13.341C101.559 12.7483 101.403 12.0623 101.403 11.283C101.403 10.457 101.557 9.74067 101.865 9.134C102.177 8.52733 102.611 8.05833 103.167 7.727C103.722 7.39567 104.368 7.23 105.106 7.23C105.876 7.23 106.531 7.40967 107.073 7.769C107.614 8.12367 108.018 8.63 108.284 9.288C108.554 9.946 108.662 10.7277 108.606 11.633H107.143V11.101C107.133 10.2237 106.965 9.575 106.639 9.155C106.317 8.735 105.824 8.525 105.162 8.525C104.429 8.525 103.878 8.756 103.51 9.218C103.141 9.68 102.957 10.3473 102.957 11.22C102.957 12.0507 103.141 12.6947 103.51 13.152C103.878 13.6047 104.41 13.831 105.106 13.831C105.563 13.831 105.957 13.7283 106.289 13.523C106.625 13.313 106.886 13.0143 107.073 12.627L108.508 13.082C108.214 13.7587 107.768 14.2837 107.171 14.657C106.573 15.0257 105.908 15.21 105.176 15.21ZM102.481 11.633V10.492H107.878V11.633H102.481ZM112.759 15.21C112.055 15.21 111.446 15.035 110.932 14.685C110.424 14.335 110.029 13.859 109.749 13.257C109.474 12.6503 109.336 11.969 109.336 11.213C109.336 10.4523 109.476 9.77333 109.756 9.176C110.036 8.574 110.433 8.10033 110.946 7.755C111.464 7.405 112.078 7.23 112.787 7.23C113.501 7.23 114.101 7.405 114.586 7.755C115.076 8.10033 115.445 8.574 115.692 9.176C115.944 9.778 116.07 10.457 116.07 11.213C116.07 11.969 115.944 12.648 115.692 13.25C115.44 13.852 115.069 14.3303 114.579 14.685C114.089 15.035 113.483 15.21 112.759 15.21ZM112.962 13.887C113.443 13.887 113.835 13.7727 114.138 13.544C114.442 13.3153 114.663 13.0003 114.803 12.599C114.943 12.1977 115.013 11.7357 115.013 11.213C115.013 10.6903 114.941 10.2283 114.796 9.827C114.656 9.42567 114.437 9.113 114.138 8.889C113.844 8.665 113.469 8.553 113.011 8.553C112.526 8.553 112.127 8.672 111.814 8.91C111.502 9.148 111.268 9.46767 111.114 9.869C110.965 10.2703 110.89 10.7183 110.89 11.213C110.89 11.7123 110.965 12.165 111.114 12.571C111.268 12.9723 111.497 13.292 111.8 13.53C112.108 13.768 112.496 13.887 112.962 13.887ZM115.013 15V9.561H114.845V4.92H116.315V15H115.013ZM123.785 15.21C123.062 15.21 122.455 15.035 121.965 14.685C121.475 14.3303 121.104 13.852 120.852 13.25C120.6 12.648 120.474 11.969 120.474 11.213C120.474 10.457 120.598 9.778 120.845 9.176C121.097 8.574 121.466 8.10033 121.951 7.755C122.441 7.405 123.043 7.23 123.757 7.23C124.467 7.23 125.078 7.405 125.591 7.755C126.109 8.10033 126.508 8.574 126.788 9.176C127.068 9.77333 127.208 10.4523 127.208 11.213C127.208 11.969 127.068 12.6503 126.788 13.257C126.513 13.859 126.119 14.335 125.605 14.685C125.097 15.035 124.49 15.21 123.785 15.21ZM120.229 15V4.92H121.699V9.561H121.531V15H120.229ZM123.582 13.887C124.049 13.887 124.434 13.768 124.737 13.53C125.045 13.292 125.274 12.9723 125.423 12.571C125.577 12.165 125.654 11.7123 125.654 11.213C125.654 10.7183 125.577 10.2703 125.423 9.869C125.274 9.46767 125.043 9.148 124.73 8.91C124.418 8.672 124.019 8.553 123.533 8.553C123.076 8.553 122.698 8.665 122.399 8.889C122.105 9.113 121.886 9.42567 121.741 9.827C121.601 10.2283 121.531 10.6903 121.531 11.213C121.531 11.7357 121.601 12.1977 121.741 12.599C121.881 13.0003 122.103 13.3153 122.406 13.544C122.71 13.7727 123.102 13.887 123.582 13.887ZM128.891 18.36L130.354 14.377L130.375 15.553L127.078 7.44H128.604L131.068 13.705H130.62L132.972 7.44H134.456L130.284 18.36H128.891Z" fill="#A7A7A7"/>
<path d="M32.123 27.8167H1.88074C0.865138 27.8167 0 28.6773 0 29.725V33.13C0 34.1777 0.865138 35.0384 1.88074 35.0384H32.123C33.1762 35.0384 34.0037 34.1777 34.0413 33.13V29.7624C34.0413 28.6773 33.1762 27.8167 32.123 27.8167ZM32.123 46.7128H1.88074C1.39174 46.7128 0.902753 46.8999 0.564221 47.2741C0.188074 47.6483 0 48.0973 0 48.6211V52.0262C0 53.0739 0.865138 53.9345 1.88074 53.9345H32.123C33.1762 53.9345 34.0037 53.1113 34.0413 52.0262V48.6211C34.0037 47.536 33.1762 46.7128 32.123 46.7128ZM18.9202 56.1422H1.88074C1.39174 56.1422 0.902753 56.3293 0.564221 56.7035C0.225688 57.0776 0 57.5267 0 58.0505V61.4556C0 62.5033 0.865138 63.3639 1.88074 63.3639H18.8826C19.9358 63.3639 20.7633 62.5033 20.7633 61.493V58.0879C20.8009 56.9654 19.9734 56.1048 18.9202 56.1422ZM34.0413 37.246H1.88074C1.39174 37.246 0.902753 37.4331 0.564221 37.8073C0.225688 38.1815 0 38.6305 0 39.1544V42.5594C0 43.6071 0.865138 44.4677 1.88074 44.4677H34.0037C35.0569 44.4677 35.8844 43.6071 35.8844 42.5594V39.1544C35.922 38.1066 35.0569 37.2834 34.0413 37.246Z" fill="#A7A7A7"/>
<path d="M69.211 35.45C68.2706 34.4771 67.1798 33.7287 65.9385 33.2049C64.6973 32.681 63.3807 32.4191 62.0266 32.4191C60.7101 32.3817 59.4312 32.681 58.2275 33.2423C57.4376 33.6165 56.7229 34.1403 56.1211 34.7764V34.1777C56.1211 33.8784 56.0083 33.579 55.8202 33.3545C55.6321 33.13 55.3312 32.9804 54.9927 32.9804H50.8174C50.5165 32.9804 50.2156 33.0926 50.0275 33.3545C49.8018 33.579 49.689 33.8784 49.7266 34.1777V62.1665C49.7266 62.4659 49.8394 62.7652 50.0275 62.9897C50.2532 63.2142 50.5165 63.3265 50.8174 63.3265H55.1055C55.4064 63.3265 55.6697 63.2142 55.8954 62.9897C56.1211 62.8026 56.2716 62.5033 56.2339 62.1665V52.5875C56.8358 53.261 57.6257 53.7474 58.4908 54.0468C59.6193 54.4584 60.7853 54.6829 61.989 54.6829C63.3431 54.6829 64.6973 54.4209 65.9385 53.8971C67.1798 53.3732 68.3083 52.6249 69.2486 51.652C70.2266 50.6417 70.9789 49.4443 71.5055 48.1347C72.1074 46.6754 72.3707 45.1038 72.333 43.5323C72.3707 41.9607 72.0697 40.3891 71.5055 38.8924C70.9413 37.6576 70.189 36.4602 69.211 35.45ZM65.3743 45.5903C65.1486 46.189 64.8101 46.7128 64.3587 47.1992C63.4936 48.1347 62.2523 48.6586 60.9734 48.6586C60.3339 48.6586 59.6945 48.5463 59.0927 48.247C58.5284 47.985 58.0018 47.6483 57.5505 47.1992C57.0991 46.7502 56.7605 46.189 56.5349 45.5903C56.0459 44.3181 56.0459 42.9336 56.5349 41.6614C56.7605 41.0627 57.1367 40.5388 57.5505 40.0898C58.0018 39.6408 58.5284 39.2666 59.0927 39.0047C59.6945 38.7428 60.3339 38.5931 60.9734 38.5931C61.6505 38.5931 62.2523 38.7053 62.8917 39.0047C63.456 39.2666 63.9826 39.6034 64.3963 40.0524C64.8477 40.5014 65.1486 41.0253 65.4119 41.6239C65.8633 42.9336 65.8257 44.3181 65.3743 45.5903ZM95.3156 33.0178H91.0652C90.7642 33.0178 90.4633 33.13 90.2753 33.3545C90.0496 33.579 89.9367 33.8784 89.9367 34.2152V34.739C89.4101 34.1029 88.733 33.6165 88.0184 33.2797C86.8523 32.7184 85.5734 32.4565 84.2945 32.4565C81.5486 32.4565 78.9532 33.5416 76.9973 35.45C75.9817 36.4602 75.1918 37.6576 74.6652 38.9673C74.0633 40.4266 73.7624 41.9981 73.8 43.6071C73.7624 45.1787 74.0633 46.7502 74.6652 48.247C75.2294 49.5566 75.9817 50.754 76.9973 51.7643C78.9156 53.71 81.5486 54.7951 84.2569 54.7951C85.5358 54.8325 86.8147 54.5332 87.9808 53.9719C88.6954 53.5978 89.4101 53.1113 89.9367 52.5126V53.0739C89.9367 53.3732 90.0496 53.6726 90.2753 53.8971C90.5009 54.0842 90.7642 54.2339 91.0652 54.2339H95.3156C95.6165 54.2339 95.9175 54.1216 96.1055 53.8971C96.3312 53.6726 96.4441 53.3732 96.4441 53.0739V34.2526C96.4441 33.9532 96.3312 33.6539 96.1432 33.4294C95.9175 33.1674 95.6165 33.0178 95.3156 33.0178ZM89.5606 45.5903C89.3349 46.189 88.9964 46.7128 88.545 47.1992C88.0936 47.6483 87.6046 48.0224 87.0404 48.2844C85.8367 48.8456 84.445 48.8456 83.2413 48.2844C82.6771 48.0224 82.1505 47.6483 81.6991 47.1992C81.2477 46.7502 80.9092 46.189 80.6835 45.5903C80.2321 44.3181 80.2321 42.9336 80.6835 41.6614C80.9092 41.0627 81.2477 40.5762 81.6991 40.0898C82.1505 39.6408 82.6395 39.2666 83.2413 39.0047C84.445 38.4434 85.8367 38.4434 87.0028 39.0047C87.567 39.2666 88.0936 39.6034 88.5074 40.0524C88.9211 40.5014 89.2597 41.0253 89.523 41.6239C90.0496 42.9336 90.0496 44.3181 89.5606 45.5903ZM137.67 43.0458C137.068 42.522 136.353 42.073 135.601 41.7736C134.811 41.4369 133.946 41.2123 133.118 41.0253L129.884 40.3891C129.056 40.2395 128.454 40.015 128.153 39.753C127.89 39.566 127.702 39.2666 127.702 38.9298C127.702 38.5931 127.89 38.2937 128.304 38.0318C128.868 37.7325 129.47 37.5828 130.109 37.6202C130.937 37.6202 131.764 37.8073 132.517 38.1066C133.269 38.4434 133.984 38.7802 134.661 39.2292C135.601 39.8279 136.428 39.7156 136.993 39.0421L138.535 37.2834C138.836 36.9841 138.986 36.6099 139.024 36.1983C138.986 35.7493 138.761 35.3751 138.422 35.0758C137.783 34.5145 136.729 33.9158 135.338 33.3171C133.946 32.7184 132.178 32.4191 130.109 32.4191C128.83 32.3817 127.589 32.5688 126.385 32.9429C125.37 33.2797 124.392 33.7661 123.527 34.4022C122.737 35.0009 122.135 35.7493 121.684 36.6473C121.27 37.508 121.044 38.4434 121.044 39.3789C121.044 41.1375 121.571 42.5594 122.624 43.6071C123.677 44.6548 125.069 45.3658 126.799 45.7025L130.184 46.4509C130.899 46.5631 131.651 46.7876 132.329 47.1244C132.705 47.2741 132.93 47.6483 132.93 48.0599C132.93 48.434 132.742 48.7708 132.329 49.0702C131.915 49.3695 131.238 49.5566 130.335 49.5566C129.432 49.5566 128.492 49.3695 127.664 48.9579C126.874 48.5837 126.16 48.0973 125.483 47.536C125.182 47.3115 124.881 47.1244 124.505 46.9747C124.129 46.8625 123.64 46.9747 123.151 47.3863L121.307 48.7708C120.781 49.145 120.517 49.7811 120.668 50.3798C120.781 51.0159 121.27 51.6146 122.21 52.3255C124.542 53.8971 127.326 54.7203 130.147 54.6455C131.463 54.6455 132.78 54.4958 134.021 54.1216C135.112 53.7848 136.128 53.2984 137.03 52.6249C137.858 52.0262 138.535 51.2404 138.986 50.305C139.438 49.4069 139.663 48.4341 139.663 47.4238C139.701 46.5257 139.513 45.6277 139.137 44.8045C138.761 44.2058 138.272 43.5697 137.67 43.0458ZM156.251 48.1721C156.063 47.8354 155.725 47.6108 155.311 47.536C154.935 47.536 154.521 47.6483 154.22 47.8728C153.694 48.2095 153.092 48.3966 152.49 48.434C152.302 48.434 152.076 48.3966 151.888 48.3592C151.662 48.3218 151.474 48.2095 151.324 48.0599C151.136 47.8728 150.985 47.6483 150.873 47.4238C150.722 47.0496 150.647 46.6754 150.684 46.3012V38.6305H156.176C156.515 38.6305 156.816 38.4808 157.041 38.2563C157.267 38.0318 157.418 37.7699 157.418 37.4331V34.1777C157.418 33.841 157.305 33.5416 157.041 33.3545C156.816 33.13 156.515 33.0178 156.214 33.0178H150.684V27.7792C150.684 27.4799 150.572 27.1431 150.346 26.956C150.12 26.7689 149.857 26.6567 149.556 26.6193H145.268C144.967 26.6193 144.666 26.7315 144.44 26.956C144.215 27.1805 144.064 27.4799 144.064 27.7792V33.0178H141.619C141.318 33.0178 141.018 33.13 140.792 33.392C140.604 33.6165 140.491 33.9158 140.491 34.2152V37.4705C140.491 37.7699 140.604 38.0692 140.792 38.2937C140.98 38.5557 141.281 38.6679 141.619 38.6679H144.064V47.7979C144.027 48.8831 144.252 49.9682 144.704 50.9411C145.118 51.7643 145.644 52.4752 146.359 53.0739C147.036 53.6352 147.826 54.0468 148.691 54.2713C149.556 54.5332 150.459 54.6829 151.362 54.6829C152.528 54.6829 153.731 54.4958 154.86 54.1216C155.913 53.7848 156.853 53.1862 157.606 52.4004C158.095 51.9139 158.132 51.1282 157.756 50.5669L156.251 48.1721ZM179.497 33.0178H175.247C174.946 33.0178 174.683 33.13 174.457 33.3545C174.231 33.579 174.118 33.8784 174.118 34.2152V34.739C173.592 34.1029 172.952 33.6165 172.2 33.2797C171.034 32.7184 169.755 32.4565 168.476 32.4565C165.73 32.4565 163.135 33.5416 161.179 35.45C160.163 36.4602 159.373 37.6576 158.847 38.9673C158.245 40.4266 157.944 41.9981 157.982 43.5697C157.944 45.1412 158.245 46.7128 158.847 48.2095C159.373 49.5192 160.201 50.7166 161.179 51.7268C163.097 53.6726 165.693 54.7577 168.439 54.7577C169.718 54.7951 170.996 54.4958 172.162 53.9719C172.915 53.5978 173.592 53.1113 174.118 52.5126V53.0739C174.118 53.3732 174.231 53.6726 174.457 53.8597C174.683 54.0842 174.946 54.1964 175.247 54.1964H179.497C180.137 54.1964 180.626 53.71 180.626 53.0739V34.2526C180.626 33.9532 180.513 33.6539 180.325 33.4294C180.137 33.1674 179.836 33.0178 179.497 33.0178ZM173.78 45.5903C173.554 46.189 173.216 46.7128 172.764 47.1992C172.313 47.6483 171.824 48.0224 171.26 48.2844C170.658 48.5463 170.018 48.696 169.341 48.696C168.664 48.696 168.062 48.5463 167.461 48.2844C166.896 48.0224 166.37 47.6483 165.918 47.1992C165.467 46.7502 165.129 46.189 164.94 45.5903C164.489 44.3181 164.489 42.9336 164.94 41.6614C165.166 41.0627 165.505 40.5388 165.918 40.0898C166.37 39.6408 166.896 39.2666 167.461 39.0047C168.062 38.7428 168.702 38.5931 169.341 38.5931C169.981 38.5931 170.62 38.7053 171.26 39.0047C171.824 39.2666 172.313 39.6034 172.764 40.0524C173.216 40.5014 173.554 41.0253 173.78 41.6239C174.269 42.8962 174.269 44.3181 173.78 45.5903ZM202.818 47.8728L200.374 46.0019C199.922 45.6277 199.471 45.5154 199.095 45.6651C198.756 45.8148 198.455 46.0393 198.192 46.3012C197.665 46.9373 197.026 47.4986 196.349 47.985C195.596 48.3966 194.807 48.6211 193.979 48.5463C193.001 48.5463 192.098 48.2844 191.308 47.7231C190.518 47.1618 189.917 46.4135 189.616 45.478C189.39 44.8419 189.277 44.2058 189.277 43.5697C189.277 42.8962 189.39 42.2601 189.616 41.5865C189.841 40.9878 190.142 40.464 190.594 40.015C191.045 39.5659 191.534 39.1918 192.098 38.9673C192.7 38.7053 193.34 38.5557 194.017 38.5557C194.844 38.5182 195.672 38.7427 196.386 39.1543C197.101 39.6034 197.703 40.1646 198.229 40.8382C198.455 41.1001 198.756 41.3246 199.095 41.4743C199.471 41.624 199.922 41.5117 200.374 41.1375L202.818 39.304C203.119 39.1169 203.345 38.8176 203.458 38.4808C203.608 38.1066 203.571 37.695 203.345 37.3583C202.405 35.899 201.126 34.7016 199.584 33.841C197.966 32.9429 196.048 32.4565 193.904 32.4565C192.399 32.4565 190.895 32.7558 189.465 33.3171C188.111 33.8784 186.907 34.6642 185.892 35.6745C184.876 36.6848 184.049 37.8821 183.485 39.2292C182.318 42.0356 182.318 45.1787 183.485 47.985C184.049 49.2947 184.839 50.5295 185.892 51.5023C188.036 53.5978 190.895 54.7203 193.904 54.7203C196.048 54.7203 197.966 54.2339 199.584 53.3358C201.126 52.4752 202.442 51.2778 203.383 49.7811C203.571 49.4443 203.608 49.0327 203.496 48.696C203.345 48.3966 203.119 48.0973 202.818 47.8728ZM225.463 52.2507L218.729 42.4471L224.485 34.8887C224.748 34.5519 224.861 34.0655 224.71 33.6539C224.597 33.3545 224.334 33.0552 223.619 33.0552H219.068C218.805 33.0552 218.541 33.13 218.316 33.2423C218.015 33.392 217.789 33.6165 217.639 33.8784L213.05 40.2769H211.959V25.16C211.959 24.8606 211.846 24.5613 211.62 24.3368C211.395 24.1123 211.131 24 210.83 24H206.58C206.279 24 205.978 24.1123 205.752 24.3368C205.527 24.5613 205.414 24.8232 205.414 25.16V53.0365C205.414 53.3732 205.527 53.6352 205.752 53.8597C205.978 54.0842 206.279 54.1964 206.58 54.1964H210.83C211.131 54.1964 211.432 54.0842 211.62 53.8597C211.846 53.6352 211.959 53.3358 211.959 53.0365V45.6651H213.163L218.165 53.2984C218.466 53.8597 219.03 54.1964 219.632 54.1964H224.409C225.124 54.1964 225.425 53.8597 225.575 53.5603C225.763 53.1113 225.726 52.6249 225.463 52.2507ZM119.464 33.0178H114.687C114.311 33.0178 113.973 33.13 113.709 33.392C113.484 33.6165 113.333 33.8784 113.258 34.1777L109.722 47.1992H108.857L105.095 34.1777C105.02 33.9158 104.907 33.6539 104.719 33.392C104.494 33.13 104.193 32.9804 103.854 32.9804H99.0019C98.3624 32.9804 97.9863 33.1674 97.7982 33.6165C97.6854 33.9906 97.6854 34.4022 97.7982 34.7764L103.817 53.1113C103.929 53.3732 104.042 53.6726 104.268 53.8597C104.494 54.0842 104.832 54.1964 105.171 54.1964H107.728L107.503 54.7951L106.939 56.4789C106.751 57.0028 106.45 57.4518 105.998 57.7886C105.584 58.0879 105.095 58.275 104.569 58.2376C104.117 58.2376 103.704 58.1253 103.29 57.9757C102.876 57.7886 102.5 57.5641 102.161 57.3022C101.861 57.0776 101.484 56.9654 101.071 56.9654H101.033C100.582 57.0028 100.168 57.2273 99.9422 57.6389L98.4376 59.8466C97.8358 60.8194 98.1743 61.4181 98.5505 61.7549C99.378 62.5033 100.318 63.0645 101.372 63.4013C102.538 63.8129 103.741 64 104.945 64C107.127 64 108.932 63.4013 110.324 62.2413C111.753 60.9691 112.844 59.3227 113.371 57.4518L120.367 34.7764C120.517 34.3648 120.555 33.9532 120.405 33.579C120.367 33.3171 120.104 33.0178 119.464 33.0178Z" fill="#A7A7A7"/>
</svg>
