<svg width="30" height="30" viewBox="0 0 30 30" fill="none" xmlns="http://www.w3.org/2000/svg">
<path d="M3.75 26.25V23.75C3.75 22.4239 4.27678 21.1521 5.21447 20.2145C6.15215 19.2768 7.42392 18.75 8.75 18.75H13.75C15.0761 18.75 16.3479 19.2768 17.2855 20.2145C18.2232 21.1521 18.75 22.4239 18.75 23.75V26.25M20 3.91251C21.0755 4.18788 22.0288 4.81338 22.7095 5.69039C23.3903 6.56741 23.7598 7.64604 23.7598 8.75626C23.7598 9.86647 23.3903 10.9451 22.7095 11.8221C22.0288 12.6991 21.0755 13.3246 20 13.6M26.25 26.25V23.75C26.2437 22.6465 25.8724 21.576 25.1941 20.7055C24.5158 19.835 23.5685 19.2134 22.5 18.9375M6.25 8.75C6.25 10.0761 6.77678 11.3479 7.71447 12.2855C8.65215 13.2232 9.92392 13.75 11.25 13.75C12.5761 13.75 13.8479 13.2232 14.7855 12.2855C15.7232 11.3479 16.25 10.0761 16.25 8.75C16.25 7.42392 15.7232 6.15215 14.7855 5.21447C13.8479 4.27678 12.5761 3.75 11.25 3.75C9.92392 3.75 8.65215 4.27678 7.71447 5.21447C6.77678 6.15215 6.25 7.42392 6.25 8.75Z" stroke="#3C3C3C" stroke-width="2" stroke-linecap="round" stroke-linejoin="round"/>
</svg>
